<mxfile host="65bd71144e" pages="2">
    <diagram id="uJ4X8tZM4djJGg5M1Jn0" name="Page-1">
        <mxGraphModel dx="1356" dy="786" grid="0" gridSize="10" guides="1" tooltips="1" connect="1" arrows="1" fold="1" page="1" pageScale="1" pageWidth="827" pageHeight="1169" background="#ffffff" math="0" shadow="0">
            <root>
                <mxCell id="0"/>
                <mxCell id="1" parent="0"/>
                <mxCell id="3" value="" style="endArrow=classic;html=1;entryX=0.5;entryY=0;entryDx=0;entryDy=0;strokeColor=#000000;" parent="1" target="106" edge="1">
                    <mxGeometry width="50" height="50" relative="1" as="geometry">
                        <mxPoint x="400" y="46" as="sourcePoint"/>
                        <mxPoint x="360" y="50" as="targetPoint"/>
                        <Array as="points"/>
                    </mxGeometry>
                </mxCell>
                <mxCell id="6" value="" style="endArrow=classic;html=1;exitX=0.5;exitY=1;exitDx=0;exitDy=0;entryX=0.5;entryY=0;entryDx=0;entryDy=0;strokeColor=#000000;" parent="1" source="106" target="107" edge="1">
                    <mxGeometry width="50" height="50" relative="1" as="geometry">
                        <mxPoint x="230" y="140" as="sourcePoint"/>
                        <mxPoint x="400" y="210" as="targetPoint"/>
                    </mxGeometry>
                </mxCell>
                <mxCell id="38" value="&lt;span style=&quot;font-size: 10px&quot;&gt;&lt;font color=&quot;#000000&quot;&gt;&lt;i&gt;&amp;lt;non satisfait&amp;gt;&lt;/i&gt;&lt;b&gt;&amp;nbsp;&lt;/b&gt;&lt;/font&gt;&lt;/span&gt;" style="text;html=1;strokeColor=none;fillColor=none;align=center;verticalAlign=middle;whiteSpace=wrap;" parent="1" vertex="1">
                    <mxGeometry x="240" y="750" width="140" height="20" as="geometry"/>
                </mxCell>
                <mxCell id="70" value="" style="rhombus;whiteSpace=wrap;html=1;" parent="1" vertex="1">
                    <mxGeometry x="375" y="740" width="50" height="60" as="geometry"/>
                </mxCell>
                <mxCell id="92" value="" style="endArrow=none;html=1;exitX=0.483;exitY=0.4;exitDx=0;exitDy=0;exitPerimeter=0;entryX=0.5;entryY=0;entryDx=0;entryDy=0;endFill=0;strokeColor=#000000;" parent="1" edge="1">
                    <mxGeometry width="50" height="50" relative="1" as="geometry">
                        <mxPoint x="400.1399999999999" y="484" as="sourcePoint"/>
                        <mxPoint x="400" y="560" as="targetPoint"/>
                    </mxGeometry>
                </mxCell>
                <mxCell id="104" value="" style="endArrow=classic;html=1;exitX=0.5;exitY=1;exitDx=0;exitDy=0;strokeColor=#000000;" parent="1" source="70" edge="1">
                    <mxGeometry width="50" height="50" relative="1" as="geometry">
                        <mxPoint x="460" y="1000" as="sourcePoint"/>
                        <mxPoint x="400" y="840" as="targetPoint"/>
                    </mxGeometry>
                </mxCell>
                <mxCell id="106" value="Entrer dans l'application" style="whiteSpace=wrap;html=1;" parent="1" vertex="1">
                    <mxGeometry x="340" y="80" width="120" height="60" as="geometry"/>
                </mxCell>
                <mxCell id="107" value="Entrer sa localisation&amp;nbsp;" style="whiteSpace=wrap;html=1;" parent="1" vertex="1">
                    <mxGeometry x="340" y="170" width="120" height="60" as="geometry"/>
                </mxCell>
                <mxCell id="108" value="" style="endArrow=none;html=1;exitX=0.5;exitY=1;exitDx=0;exitDy=0;endFill=0;strokeColor=#000000;" parent="1" source="107" edge="1">
                    <mxGeometry width="50" height="50" relative="1" as="geometry">
                        <mxPoint x="400" y="280" as="sourcePoint"/>
                        <mxPoint x="400" y="280" as="targetPoint"/>
                    </mxGeometry>
                </mxCell>
                <mxCell id="111" value="Entrer le nom du restaurant" style="whiteSpace=wrap;html=1;" parent="1" vertex="1">
                    <mxGeometry x="140" y="320" width="120" height="60" as="geometry"/>
                </mxCell>
                <mxCell id="112" value="" style="endArrow=classic;html=1;entryX=0.5;entryY=0;entryDx=0;entryDy=0;strokeColor=#000000;" parent="1" target="111" edge="1">
                    <mxGeometry width="50" height="50" relative="1" as="geometry">
                        <mxPoint x="200" y="280" as="sourcePoint"/>
                        <mxPoint x="450" y="380" as="targetPoint"/>
                    </mxGeometry>
                </mxCell>
                <mxCell id="113" value="Sélectionner la spécialité" style="whiteSpace=wrap;html=1;" parent="1" vertex="1">
                    <mxGeometry x="540" y="320" width="120" height="60" as="geometry"/>
                </mxCell>
                <mxCell id="114" value="" style="endArrow=classic;html=1;strokeColor=#000000;" parent="1" target="113" edge="1">
                    <mxGeometry width="50" height="50" relative="1" as="geometry">
                        <mxPoint x="600" y="280" as="sourcePoint"/>
                        <mxPoint x="450" y="370" as="targetPoint"/>
                    </mxGeometry>
                </mxCell>
                <mxCell id="115" value="Sélectionner un restaurant" style="whiteSpace=wrap;html=1;" parent="1" vertex="1">
                    <mxGeometry x="340" y="440" width="120" height="60" as="geometry"/>
                </mxCell>
                <mxCell id="117" value="Consulter les avis" style="whiteSpace=wrap;html=1;" parent="1" vertex="1">
                    <mxGeometry x="540" y="630" width="120" height="60" as="geometry"/>
                </mxCell>
                <mxCell id="118" value="Consulter les menus" style="whiteSpace=wrap;html=1;" parent="1" vertex="1">
                    <mxGeometry x="340" y="630" width="120" height="60" as="geometry"/>
                </mxCell>
                <mxCell id="119" value="" style="endArrow=classic;html=1;entryX=0.5;entryY=0;entryDx=0;entryDy=0;exitX=0.5;exitY=1;exitDx=0;exitDy=0;strokeColor=#000000;" parent="1" source="134" target="118" edge="1">
                    <mxGeometry width="50" height="50" relative="1" as="geometry">
                        <mxPoint x="600" y="560" as="sourcePoint"/>
                        <mxPoint x="230" y="610" as="targetPoint"/>
                        <Array as="points"/>
                    </mxGeometry>
                </mxCell>
                <mxCell id="123" value="" style="endArrow=none;html=1;endFill=0;strokeColor=#000000;" parent="1" edge="1">
                    <mxGeometry width="50" height="50" relative="1" as="geometry">
                        <mxPoint x="200" y="380" as="sourcePoint"/>
                        <mxPoint x="200" y="400" as="targetPoint"/>
                    </mxGeometry>
                </mxCell>
                <mxCell id="124" value="" style="endArrow=none;html=1;endFill=0;strokeColor=#000000;" parent="1" source="113" edge="1">
                    <mxGeometry width="50" height="50" relative="1" as="geometry">
                        <mxPoint x="210" y="390" as="sourcePoint"/>
                        <mxPoint x="600" y="400" as="targetPoint"/>
                    </mxGeometry>
                </mxCell>
                <mxCell id="126" value="" style="endArrow=classic;html=1;entryX=0.5;entryY=0;entryDx=0;entryDy=0;strokeColor=#000000;" parent="1" target="115" edge="1">
                    <mxGeometry width="50" height="50" relative="1" as="geometry">
                        <mxPoint x="400" y="400" as="sourcePoint"/>
                        <mxPoint x="410" y="570" as="targetPoint"/>
                    </mxGeometry>
                </mxCell>
                <mxCell id="130" value="&lt;span style=&quot;font-size: 10px&quot;&gt;&lt;i&gt;&lt;font color=&quot;#000000&quot;&gt;&amp;lt;satisfait&amp;gt;&amp;nbsp;&lt;/font&gt;&lt;/i&gt;&lt;/span&gt;" style="text;html=1;strokeColor=none;fillColor=none;align=center;verticalAlign=middle;whiteSpace=wrap;" parent="1" vertex="1">
                    <mxGeometry x="360" y="810" width="140" height="20" as="geometry"/>
                </mxCell>
                <mxCell id="131" value="Faire une commande" style="whiteSpace=wrap;html=1;" parent="1" vertex="1">
                    <mxGeometry x="340" y="840" width="120" height="60" as="geometry"/>
                </mxCell>
                <mxCell id="134" value="" style="rhombus;whiteSpace=wrap;html=1;" parent="1" vertex="1">
                    <mxGeometry x="375" y="530" width="50" height="60" as="geometry"/>
                </mxCell>
                <mxCell id="136" value="&lt;span style=&quot;font-size: 10px&quot;&gt;&lt;i&gt;&lt;font color=&quot;#000000&quot;&gt;&amp;lt;consulter les avis&amp;gt;&lt;/font&gt;&lt;/i&gt;&lt;/span&gt;" style="text;html=1;strokeColor=none;fillColor=none;align=center;verticalAlign=middle;whiteSpace=wrap;" parent="1" vertex="1">
                    <mxGeometry x="450" y="540" width="140" height="20" as="geometry"/>
                </mxCell>
                <mxCell id="137" value="&lt;span style=&quot;font-size: 10px&quot;&gt;&lt;i&gt;&lt;font color=&quot;#000000&quot;&gt;&amp;lt;consulter menus&amp;gt;&lt;/font&gt;&lt;/i&gt;&lt;/span&gt;" style="text;html=1;strokeColor=none;fillColor=none;align=center;verticalAlign=middle;whiteSpace=wrap;" parent="1" vertex="1">
                    <mxGeometry x="375" y="600" width="140" height="20" as="geometry"/>
                </mxCell>
                <mxCell id="139" value="" style="endArrow=classic;html=1;entryX=0.5;entryY=0;entryDx=0;entryDy=0;strokeColor=#000000;" parent="1" target="70" edge="1">
                    <mxGeometry width="50" height="50" relative="1" as="geometry">
                        <mxPoint x="399.5" y="690" as="sourcePoint"/>
                        <mxPoint x="399.5" y="740" as="targetPoint"/>
                    </mxGeometry>
                </mxCell>
                <mxCell id="142" style="edgeStyle=orthogonalEdgeStyle;orthogonalLoop=1;jettySize=auto;html=1;exitX=0.5;exitY=1;exitDx=0;exitDy=0;startArrow=classic;startFill=1;endArrow=none;endFill=0;strokeWidth=1;" parent="1" source="117" target="117" edge="1">
                    <mxGeometry relative="1" as="geometry"/>
                </mxCell>
                <mxCell id="144" value="" style="rhombus;whiteSpace=wrap;html=1;" parent="1" vertex="1">
                    <mxGeometry x="375" y="250" width="50" height="60" as="geometry"/>
                </mxCell>
                <mxCell id="147" value="" style="endArrow=none;html=1;strokeWidth=1;entryX=0;entryY=0.5;entryDx=0;entryDy=0;strokeColor=#000000;" parent="1" target="144" edge="1">
                    <mxGeometry width="50" height="50" relative="1" as="geometry">
                        <mxPoint x="200" y="280" as="sourcePoint"/>
                        <mxPoint x="350" y="270" as="targetPoint"/>
                    </mxGeometry>
                </mxCell>
                <mxCell id="148" value="" style="endArrow=none;html=1;strokeWidth=1;exitX=1;exitY=0.5;exitDx=0;exitDy=0;strokeColor=#000000;" parent="1" source="144" edge="1">
                    <mxGeometry width="50" height="50" relative="1" as="geometry">
                        <mxPoint x="300" y="320" as="sourcePoint"/>
                        <mxPoint x="600" y="280" as="targetPoint"/>
                        <Array as="points">
                            <mxPoint x="520" y="280"/>
                        </Array>
                    </mxGeometry>
                </mxCell>
                <mxCell id="149" value="" style="endArrow=none;html=1;strokeWidth=1;strokeColor=#000000;" parent="1" edge="1">
                    <mxGeometry width="50" height="50" relative="1" as="geometry">
                        <mxPoint x="400" y="400" as="sourcePoint"/>
                        <mxPoint x="600" y="400" as="targetPoint"/>
                    </mxGeometry>
                </mxCell>
                <mxCell id="151" value="" style="endArrow=none;html=1;strokeWidth=1;strokeColor=#000000;" parent="1" edge="1">
                    <mxGeometry width="50" height="50" relative="1" as="geometry">
                        <mxPoint x="200" y="400.0000000000001" as="sourcePoint"/>
                        <mxPoint x="400" y="400.0000000000001" as="targetPoint"/>
                    </mxGeometry>
                </mxCell>
                <mxCell id="152" value="&lt;span style=&quot;font-size: 10px&quot;&gt;&lt;i&gt;&lt;font color=&quot;#000000&quot;&gt;&amp;lt;filtrer par spécialité&amp;gt;&lt;/font&gt;&lt;/i&gt;&lt;/span&gt;" style="text;html=1;strokeColor=none;fillColor=none;align=center;verticalAlign=middle;whiteSpace=wrap;" parent="1" vertex="1">
                    <mxGeometry x="420" y="260" width="140" height="20" as="geometry"/>
                </mxCell>
                <mxCell id="153" value="&lt;span style=&quot;font-size: 10px&quot;&gt;&lt;i&gt;&lt;font color=&quot;#000000&quot;&gt;&amp;lt;filtrer par le nom&amp;gt;&lt;/font&gt;&lt;/i&gt;&lt;/span&gt;" style="text;html=1;strokeColor=none;fillColor=none;align=center;verticalAlign=middle;whiteSpace=wrap;" parent="1" vertex="1">
                    <mxGeometry x="220" y="260" width="140" height="20" as="geometry"/>
                </mxCell>
                <mxCell id="154" value="" style="endArrow=none;html=1;strokeWidth=1;entryX=0.5;entryY=1;entryDx=0;entryDy=0;strokeColor=#000000;" parent="1" target="144" edge="1">
                    <mxGeometry width="50" height="50" relative="1" as="geometry">
                        <mxPoint x="400" y="400" as="sourcePoint"/>
                        <mxPoint x="360" y="410" as="targetPoint"/>
                    </mxGeometry>
                </mxCell>
                <mxCell id="155" value="" style="endArrow=none;html=1;strokeWidth=1;exitX=1;exitY=0.5;exitDx=0;exitDy=0;strokeColor=#000000;" parent="1" edge="1">
                    <mxGeometry width="50" height="50" relative="1" as="geometry">
                        <mxPoint x="425" y="560" as="sourcePoint"/>
                        <mxPoint x="600" y="560" as="targetPoint"/>
                        <Array as="points">
                            <mxPoint x="520" y="560"/>
                        </Array>
                    </mxGeometry>
                </mxCell>
                <mxCell id="156" value="" style="endArrow=classic;html=1;strokeColor=#000000;" parent="1" edge="1">
                    <mxGeometry width="50" height="50" relative="1" as="geometry">
                        <mxPoint x="600" y="560" as="sourcePoint"/>
                        <mxPoint x="600" y="630" as="targetPoint"/>
                    </mxGeometry>
                </mxCell>
                <mxCell id="157" value="" style="endArrow=none;html=1;endFill=0;strokeColor=#000000;" parent="1" edge="1">
                    <mxGeometry width="50" height="50" relative="1" as="geometry">
                        <mxPoint x="600" y="690" as="sourcePoint"/>
                        <mxPoint x="600" y="770" as="targetPoint"/>
                    </mxGeometry>
                </mxCell>
                <mxCell id="158" value="" style="endArrow=none;html=1;strokeWidth=1;exitX=1;exitY=0.5;exitDx=0;exitDy=0;startArrow=classic;startFill=1;strokeColor=#000000;" parent="1" edge="1">
                    <mxGeometry width="50" height="50" relative="1" as="geometry">
                        <mxPoint x="425" y="770" as="sourcePoint"/>
                        <mxPoint x="600" y="770" as="targetPoint"/>
                        <Array as="points">
                            <mxPoint x="520" y="770"/>
                        </Array>
                    </mxGeometry>
                </mxCell>
                <mxCell id="159" value="" style="endArrow=none;html=1;entryX=0;entryY=0.5;entryDx=0;entryDy=0;strokeColor=#000000;" parent="1" target="70" edge="1">
                    <mxGeometry width="50" height="50" relative="1" as="geometry">
                        <mxPoint x="160" y="770" as="sourcePoint"/>
                        <mxPoint x="360" y="680" as="targetPoint"/>
                    </mxGeometry>
                </mxCell>
                <mxCell id="160" value="" style="endArrow=none;html=1;strokeColor=#000000;" parent="1" edge="1">
                    <mxGeometry width="50" height="50" relative="1" as="geometry">
                        <mxPoint x="160" y="770" as="sourcePoint"/>
                        <mxPoint x="160" y="480" as="targetPoint"/>
                    </mxGeometry>
                </mxCell>
                <mxCell id="161" value="" style="endArrow=classic;html=1;endFill=1;strokeColor=#000000;" parent="1" edge="1">
                    <mxGeometry width="50" height="50" relative="1" as="geometry">
                        <mxPoint x="160" y="480" as="sourcePoint"/>
                        <mxPoint x="340" y="480" as="targetPoint"/>
                    </mxGeometry>
                </mxCell>
                <mxCell id="GRqx6D3Hg7muBKMXTZQ2-163" value="" style="edgeStyle=orthogonalEdgeStyle;rounded=0;orthogonalLoop=1;jettySize=auto;html=1;" parent="1" source="GRqx6D3Hg7muBKMXTZQ2-161" target="106" edge="1">
                    <mxGeometry relative="1" as="geometry"/>
                </mxCell>
                <mxCell id="GRqx6D3Hg7muBKMXTZQ2-161" value="" style="ellipse;html=1;verticalLabelPosition=bottom;labelBackgroundColor=#ffffff;verticalAlign=top;fillColor=#000000" parent="1" vertex="1">
                    <mxGeometry x="395" y="26" width="10" height="10" as="geometry"/>
                </mxCell>
                <mxCell id="GRqx6D3Hg7muBKMXTZQ2-164" value="" style="ellipse;html=1;verticalLabelPosition=bottom;labelBackgroundColor=#ffffff;verticalAlign=top;fillColor=#ffffff;direction=south;" parent="1" vertex="1">
                    <mxGeometry x="395" y="944" width="10" height="10" as="geometry"/>
                </mxCell>
                <mxCell id="GRqx6D3Hg7muBKMXTZQ2-167" value="" style="endArrow=classic;html=1;exitX=0.5;exitY=1;exitDx=0;exitDy=0;entryX=0;entryY=0.5;entryDx=0;entryDy=0;" parent="1" source="131" target="GRqx6D3Hg7muBKMXTZQ2-164" edge="1">
                    <mxGeometry width="50" height="50" relative="1" as="geometry">
                        <mxPoint x="288" y="1025" as="sourcePoint"/>
                        <mxPoint x="338" y="975" as="targetPoint"/>
                    </mxGeometry>
                </mxCell>
                <mxCell id="163" value="" style="endArrow=classic;html=1;strokeColor=#000000;exitX=0.5;exitY=1;exitDx=0;exitDy=0;" edge="1" parent="1" source="131">
                    <mxGeometry width="50" height="50" relative="1" as="geometry">
                        <mxPoint x="372" y="943" as="sourcePoint"/>
                        <mxPoint x="400" y="964" as="targetPoint"/>
                    </mxGeometry>
                </mxCell>
                <mxCell id="165" value="" style="ellipse;shape=doubleEllipse;html=1;dashed=0;whitespace=wrap;aspect=fixed;" vertex="1" parent="1">
                    <mxGeometry x="382" y="964" width="36" height="36" as="geometry"/>
                </mxCell>
            </root>
        </mxGraphModel>
    </diagram>
    <diagram id="Pvk16Yk9mmTxDUWuedHs" name="Page-2">
        <mxGraphModel dx="1102" dy="681" grid="0" gridSize="10" guides="1" tooltips="1" connect="1" arrows="1" fold="1" page="1" pageScale="1" pageWidth="827" pageHeight="1169" background="#F4F1DE" math="0" shadow="0">
            <root>
                <mxCell id="Tb9AdFsS8pXjhhtc2Pzk-0"/>
                <mxCell id="Tb9AdFsS8pXjhhtc2Pzk-1" parent="Tb9AdFsS8pXjhhtc2Pzk-0"/>
                <mxCell id="Tb9AdFsS8pXjhhtc2Pzk-2" value="" style="shape=waypoint;sketch=0;fillStyle=solid;size=6;pointerEvents=1;points=[];fillColor=none;resizable=0;rotatable=0;perimeter=centerPerimeter;snapToPoint=1;rounded=0;fontColor=#393C56;strokeColor=#E07A5F;" parent="Tb9AdFsS8pXjhhtc2Pzk-1" vertex="1">
                    <mxGeometry x="380" y="20" width="40" height="40" as="geometry"/>
                </mxCell>
                <mxCell id="Tb9AdFsS8pXjhhtc2Pzk-3" value="&lt;h2&gt;Ajouter une comande&lt;/h2&gt;" style="rounded=1;whiteSpace=wrap;html=1;sketch=0;fontColor=#393C56;strokeColor=#E07A5F;fillColor=#F2CC8F;" parent="Tb9AdFsS8pXjhhtc2Pzk-1" vertex="1">
                    <mxGeometry x="340" y="640" width="120" height="60" as="geometry"/>
                </mxCell>
                <mxCell id="Tb9AdFsS8pXjhhtc2Pzk-4" value="&lt;h2&gt;Choisir Menu à retirer&lt;/h2&gt;" style="rounded=1;whiteSpace=wrap;html=1;sketch=0;fontColor=#393C56;strokeColor=#E07A5F;fillColor=#F2CC8F;" parent="Tb9AdFsS8pXjhhtc2Pzk-1" vertex="1">
                    <mxGeometry x="80" y="540" width="120" height="60" as="geometry"/>
                </mxCell>
                <mxCell id="Tb9AdFsS8pXjhhtc2Pzk-5" value="&lt;h2&gt;Enregistrer la commande&lt;/h2&gt;" style="rounded=1;whiteSpace=wrap;html=1;sketch=0;fontColor=#393C56;strokeColor=#E07A5F;fillColor=#F2CC8F;" parent="Tb9AdFsS8pXjhhtc2Pzk-1" vertex="1">
                    <mxGeometry x="340" y="940" width="120" height="60" as="geometry"/>
                </mxCell>
                <mxCell id="Tb9AdFsS8pXjhhtc2Pzk-6" value="&lt;h2&gt;Retirer un menu&lt;/h2&gt;" style="rounded=1;whiteSpace=wrap;html=1;sketch=0;fontColor=#393C56;strokeColor=#E07A5F;fillColor=#F2CC8F;" parent="Tb9AdFsS8pXjhhtc2Pzk-1" vertex="1">
                    <mxGeometry x="80" y="640" width="120" height="60" as="geometry"/>
                </mxCell>
                <mxCell id="Tb9AdFsS8pXjhhtc2Pzk-7" value="&lt;h2&gt;Valider le panier&lt;/h2&gt;" style="rounded=1;whiteSpace=wrap;html=1;sketch=0;fontColor=#393C56;strokeColor=#E07A5F;fillColor=#F2CC8F;" parent="Tb9AdFsS8pXjhhtc2Pzk-1" vertex="1">
                    <mxGeometry x="340" y="840" width="120" height="60" as="geometry"/>
                </mxCell>
                <mxCell id="Tb9AdFsS8pXjhhtc2Pzk-8" value="&lt;h2&gt;Ajouter un menu&lt;/h2&gt;" style="rounded=1;whiteSpace=wrap;html=1;sketch=0;fontColor=#393C56;strokeColor=#E07A5F;fillColor=#F2CC8F;" parent="Tb9AdFsS8pXjhhtc2Pzk-1" vertex="1">
                    <mxGeometry x="340" y="330" width="120" height="60" as="geometry"/>
                </mxCell>
                <mxCell id="Tb9AdFsS8pXjhhtc2Pzk-9" value="&lt;h2&gt;Ouvrir le panier&lt;/h2&gt;" style="rounded=1;whiteSpace=wrap;html=1;sketch=0;fontColor=#393C56;strokeColor=#E07A5F;fillColor=#F2CC8F;" parent="Tb9AdFsS8pXjhhtc2Pzk-1" vertex="1">
                    <mxGeometry x="80" y="440" width="120" height="60" as="geometry"/>
                </mxCell>
                <mxCell id="Tb9AdFsS8pXjhhtc2Pzk-10" value="&lt;h2&gt;Créer un panier&lt;/h2&gt;" style="rounded=1;whiteSpace=wrap;html=1;sketch=0;fontColor=#393C56;strokeColor=#E07A5F;fillColor=#F2CC8F;" parent="Tb9AdFsS8pXjhhtc2Pzk-1" vertex="1">
                    <mxGeometry x="340" y="200" width="120" height="60" as="geometry"/>
                </mxCell>
                <mxCell id="Tb9AdFsS8pXjhhtc2Pzk-11" value="&lt;h2&gt;Créer une commande&lt;/h2&gt;" style="rounded=1;whiteSpace=wrap;html=1;sketch=0;fontColor=#393C56;strokeColor=#E07A5F;fillColor=#F2CC8F;" parent="Tb9AdFsS8pXjhhtc2Pzk-1" vertex="1">
                    <mxGeometry x="340" y="90" width="120" height="60" as="geometry"/>
                </mxCell>
                <mxCell id="Tb9AdFsS8pXjhhtc2Pzk-12" value="" style="endArrow=classic;html=1;fontColor=#393C56;strokeColor=#E07A5F;fillColor=#F2CC8F;exitX=0.45;exitY=0.675;exitDx=0;exitDy=0;exitPerimeter=0;entryX=0.5;entryY=0;entryDx=0;entryDy=0;labelBackgroundColor=#F4F1DE;" parent="Tb9AdFsS8pXjhhtc2Pzk-1" source="Tb9AdFsS8pXjhhtc2Pzk-2" target="Tb9AdFsS8pXjhhtc2Pzk-11" edge="1">
                    <mxGeometry width="50" height="50" relative="1" as="geometry">
                        <mxPoint x="390" y="270" as="sourcePoint"/>
                        <mxPoint x="440" y="220" as="targetPoint"/>
                    </mxGeometry>
                </mxCell>
                <mxCell id="Tb9AdFsS8pXjhhtc2Pzk-13" value="" style="endArrow=classic;html=1;fontColor=#393C56;strokeColor=#E07A5F;fillColor=#F2CC8F;exitX=0.5;exitY=1;exitDx=0;exitDy=0;entryX=0.5;entryY=0;entryDx=0;entryDy=0;entryPerimeter=0;labelBackgroundColor=#F4F1DE;" parent="Tb9AdFsS8pXjhhtc2Pzk-1" source="Tb9AdFsS8pXjhhtc2Pzk-11" target="Tb9AdFsS8pXjhhtc2Pzk-10" edge="1">
                    <mxGeometry width="50" height="50" relative="1" as="geometry">
                        <mxPoint x="390" y="270" as="sourcePoint"/>
                        <mxPoint x="400" y="190" as="targetPoint"/>
                    </mxGeometry>
                </mxCell>
                <mxCell id="Tb9AdFsS8pXjhhtc2Pzk-14" value="" style="rhombus;whiteSpace=wrap;html=1;rounded=0;sketch=0;fontColor=#393C56;strokeColor=#E07A5F;fillColor=#F2CC8F;" parent="Tb9AdFsS8pXjhhtc2Pzk-1" vertex="1">
                    <mxGeometry x="365" y="440" width="70" height="60" as="geometry"/>
                </mxCell>
                <mxCell id="Tb9AdFsS8pXjhhtc2Pzk-15" value="" style="endArrow=classic;html=1;fontColor=#393C56;strokeColor=#E07A5F;fillColor=#F2CC8F;exitX=0.5;exitY=1;exitDx=0;exitDy=0;labelBackgroundColor=#F4F1DE;" parent="Tb9AdFsS8pXjhhtc2Pzk-1" source="Tb9AdFsS8pXjhhtc2Pzk-10" edge="1">
                    <mxGeometry width="50" height="50" relative="1" as="geometry">
                        <mxPoint x="390" y="270" as="sourcePoint"/>
                        <mxPoint x="400" y="330" as="targetPoint"/>
                    </mxGeometry>
                </mxCell>
                <mxCell id="Tb9AdFsS8pXjhhtc2Pzk-16" value="" style="endArrow=classic;html=1;fontColor=#393C56;strokeColor=#E07A5F;fillColor=#F2CC8F;exitX=0;exitY=0.5;exitDx=0;exitDy=0;entryX=1;entryY=0.5;entryDx=0;entryDy=0;labelBackgroundColor=#F4F1DE;" parent="Tb9AdFsS8pXjhhtc2Pzk-1" source="Tb9AdFsS8pXjhhtc2Pzk-14" target="Tb9AdFsS8pXjhhtc2Pzk-9" edge="1">
                    <mxGeometry width="50" height="50" relative="1" as="geometry">
                        <mxPoint x="390" y="270" as="sourcePoint"/>
                        <mxPoint x="230" y="350" as="targetPoint"/>
                    </mxGeometry>
                </mxCell>
                <mxCell id="Tb9AdFsS8pXjhhtc2Pzk-19" value="&lt;h3&gt;Modifier panier&lt;/h3&gt;" style="text;html=1;align=center;verticalAlign=middle;whiteSpace=wrap;rounded=0;sketch=0;fontColor=#393C56;" parent="Tb9AdFsS8pXjhhtc2Pzk-1" vertex="1">
                    <mxGeometry x="230" y="440" width="110" height="20" as="geometry"/>
                </mxCell>
                <mxCell id="CWuYNWOtUaod2RrFY3A3-1" value="&lt;h3&gt;Pas modifier panier&lt;/h3&gt;" style="text;html=1;align=center;verticalAlign=middle;whiteSpace=wrap;rounded=0;sketch=0;fontColor=#393C56;" parent="Tb9AdFsS8pXjhhtc2Pzk-1" vertex="1">
                    <mxGeometry x="400" y="550" width="140" height="20" as="geometry"/>
                </mxCell>
                <mxCell id="CWuYNWOtUaod2RrFY3A3-2" value="" style="endArrow=classic;html=1;fontColor=#393C56;strokeColor=#E07A5F;fillColor=#F2CC8F;exitX=0.5;exitY=1;exitDx=0;exitDy=0;entryX=0.5;entryY=0;entryDx=0;entryDy=0;labelBackgroundColor=#F4F1DE;" parent="Tb9AdFsS8pXjhhtc2Pzk-1" source="Tb9AdFsS8pXjhhtc2Pzk-9" target="Tb9AdFsS8pXjhhtc2Pzk-4" edge="1">
                    <mxGeometry width="50" height="50" relative="1" as="geometry">
                        <mxPoint x="390" y="400" as="sourcePoint"/>
                        <mxPoint x="440" y="350" as="targetPoint"/>
                    </mxGeometry>
                </mxCell>
                <mxCell id="CWuYNWOtUaod2RrFY3A3-3" value="" style="endArrow=classic;html=1;fontColor=#393C56;strokeColor=#E07A5F;fillColor=#F2CC8F;exitX=0.5;exitY=1;exitDx=0;exitDy=0;entryX=0.5;entryY=0;entryDx=0;entryDy=0;labelBackgroundColor=#F4F1DE;" parent="Tb9AdFsS8pXjhhtc2Pzk-1" source="Tb9AdFsS8pXjhhtc2Pzk-4" target="Tb9AdFsS8pXjhhtc2Pzk-6" edge="1">
                    <mxGeometry width="50" height="50" relative="1" as="geometry">
                        <mxPoint x="390" y="590" as="sourcePoint"/>
                        <mxPoint x="440" y="540" as="targetPoint"/>
                    </mxGeometry>
                </mxCell>
                <mxCell id="CWuYNWOtUaod2RrFY3A3-5" value="" style="endArrow=classic;html=1;fontColor=#393C56;strokeColor=#E07A5F;fillColor=#F2CC8F;exitX=0.5;exitY=1;exitDx=0;exitDy=0;entryX=0.5;entryY=0;entryDx=0;entryDy=0;labelBackgroundColor=#F4F1DE;" parent="Tb9AdFsS8pXjhhtc2Pzk-1" source="Tb9AdFsS8pXjhhtc2Pzk-8" target="Tb9AdFsS8pXjhhtc2Pzk-14" edge="1">
                    <mxGeometry width="50" height="50" relative="1" as="geometry">
                        <mxPoint x="390" y="480" as="sourcePoint"/>
                        <mxPoint x="440" y="430" as="targetPoint"/>
                    </mxGeometry>
                </mxCell>
                <mxCell id="CWuYNWOtUaod2RrFY3A3-11" value="" style="endArrow=classic;html=1;fontColor=#393C56;strokeColor=#E07A5F;fillColor=#F2CC8F;exitX=0.5;exitY=1;exitDx=0;exitDy=0;entryX=0.5;entryY=0;entryDx=0;entryDy=0;labelBackgroundColor=#F4F1DE;" parent="Tb9AdFsS8pXjhhtc2Pzk-1" source="Tb9AdFsS8pXjhhtc2Pzk-14" target="Tb9AdFsS8pXjhhtc2Pzk-3" edge="1">
                    <mxGeometry width="50" height="50" relative="1" as="geometry">
                        <mxPoint x="390" y="620" as="sourcePoint"/>
                        <mxPoint x="450" y="680" as="targetPoint"/>
                    </mxGeometry>
                </mxCell>
                <mxCell id="CWuYNWOtUaod2RrFY3A3-12" value="" style="rhombus;whiteSpace=wrap;html=1;rounded=0;sketch=0;fontColor=#393C56;strokeColor=#E07A5F;fillColor=#F2CC8F;" parent="Tb9AdFsS8pXjhhtc2Pzk-1" vertex="1">
                    <mxGeometry x="370" y="740" width="60" height="70" as="geometry"/>
                </mxCell>
                <mxCell id="CWuYNWOtUaod2RrFY3A3-13" value="&lt;h2&gt;Donnez les avis&lt;/h2&gt;" style="rounded=1;whiteSpace=wrap;html=1;sketch=0;fontColor=#393C56;strokeColor=#E07A5F;fillColor=#F2CC8F;" parent="Tb9AdFsS8pXjhhtc2Pzk-1" vertex="1">
                    <mxGeometry x="340" y="1030" width="120" height="60" as="geometry"/>
                </mxCell>
                <mxCell id="CWuYNWOtUaod2RrFY3A3-14" value="" style="shape=waypoint;sketch=0;fillStyle=solid;size=6;pointerEvents=1;points=[];fillColor=none;resizable=0;rotatable=0;perimeter=centerPerimeter;snapToPoint=1;rounded=0;fontColor=#393C56;strokeColor=#E07A5F;" parent="Tb9AdFsS8pXjhhtc2Pzk-1" vertex="1">
                    <mxGeometry x="380" y="1129" width="40" height="40" as="geometry"/>
                </mxCell>
                <mxCell id="CWuYNWOtUaod2RrFY3A3-16" value="" style="endArrow=classic;html=1;fontColor=#393C56;strokeColor=#E07A5F;fillColor=#F2CC8F;exitX=1;exitY=0.5;exitDx=0;exitDy=0;entryX=0;entryY=0.5;entryDx=0;entryDy=0;labelBackgroundColor=#F4F1DE;" parent="Tb9AdFsS8pXjhhtc2Pzk-1" source="Tb9AdFsS8pXjhhtc2Pzk-6" target="Tb9AdFsS8pXjhhtc2Pzk-3" edge="1">
                    <mxGeometry width="50" height="50" relative="1" as="geometry">
                        <mxPoint x="540" y="680" as="sourcePoint"/>
                        <mxPoint x="590" y="630" as="targetPoint"/>
                    </mxGeometry>
                </mxCell>
                <mxCell id="CWuYNWOtUaod2RrFY3A3-17" value="" style="endArrow=classic;html=1;fontColor=#393C56;strokeColor=#E07A5F;fillColor=#F2CC8F;exitX=0.5;exitY=1;exitDx=0;exitDy=0;labelBackgroundColor=#F4F1DE;" parent="Tb9AdFsS8pXjhhtc2Pzk-1" source="Tb9AdFsS8pXjhhtc2Pzk-3" edge="1">
                    <mxGeometry width="50" height="50" relative="1" as="geometry">
                        <mxPoint x="540" y="680" as="sourcePoint"/>
                        <mxPoint x="400" y="740" as="targetPoint"/>
                    </mxGeometry>
                </mxCell>
                <mxCell id="CWuYNWOtUaod2RrFY3A3-18" value="" style="endArrow=classic;html=1;fontColor=#393C56;strokeColor=#E07A5F;fillColor=#F2CC8F;exitX=0.5;exitY=1;exitDx=0;exitDy=0;entryX=0.5;entryY=0;entryDx=0;entryDy=0;labelBackgroundColor=#F4F1DE;" parent="Tb9AdFsS8pXjhhtc2Pzk-1" source="CWuYNWOtUaod2RrFY3A3-12" target="Tb9AdFsS8pXjhhtc2Pzk-7" edge="1">
                    <mxGeometry width="50" height="50" relative="1" as="geometry">
                        <mxPoint x="540" y="880" as="sourcePoint"/>
                        <mxPoint x="590" y="830" as="targetPoint"/>
                    </mxGeometry>
                </mxCell>
                <mxCell id="CWuYNWOtUaod2RrFY3A3-19" value="" style="endArrow=classic;html=1;fontColor=#393C56;strokeColor=#E07A5F;fillColor=#F2CC8F;exitX=0.5;exitY=1;exitDx=0;exitDy=0;entryX=0.5;entryY=0;entryDx=0;entryDy=0;labelBackgroundColor=#F4F1DE;" parent="Tb9AdFsS8pXjhhtc2Pzk-1" source="Tb9AdFsS8pXjhhtc2Pzk-7" target="Tb9AdFsS8pXjhhtc2Pzk-5" edge="1">
                    <mxGeometry width="50" height="50" relative="1" as="geometry">
                        <mxPoint x="540" y="880" as="sourcePoint"/>
                        <mxPoint x="590" y="830" as="targetPoint"/>
                    </mxGeometry>
                </mxCell>
                <mxCell id="CWuYNWOtUaod2RrFY3A3-20" value="" style="endArrow=classic;html=1;fontColor=#393C56;strokeColor=#E07A5F;fillColor=#F2CC8F;exitX=0.5;exitY=1;exitDx=0;exitDy=0;labelBackgroundColor=#F4F1DE;" parent="Tb9AdFsS8pXjhhtc2Pzk-1" source="CWuYNWOtUaod2RrFY3A3-13" target="CWuYNWOtUaod2RrFY3A3-14" edge="1">
                    <mxGeometry width="50" height="50" relative="1" as="geometry">
                        <mxPoint x="540" y="990" as="sourcePoint"/>
                        <mxPoint x="590" y="940" as="targetPoint"/>
                    </mxGeometry>
                </mxCell>
                <mxCell id="CWuYNWOtUaod2RrFY3A3-21" value="" style="endArrow=classic;html=1;fontColor=#393C56;strokeColor=#E07A5F;fillColor=#F2CC8F;exitX=0.5;exitY=1;exitDx=0;exitDy=0;entryX=0.5;entryY=0;entryDx=0;entryDy=0;labelBackgroundColor=#F4F1DE;" parent="Tb9AdFsS8pXjhhtc2Pzk-1" source="Tb9AdFsS8pXjhhtc2Pzk-5" target="CWuYNWOtUaod2RrFY3A3-13" edge="1">
                    <mxGeometry width="50" height="50" relative="1" as="geometry">
                        <mxPoint x="540" y="990" as="sourcePoint"/>
                        <mxPoint x="590" y="940" as="targetPoint"/>
                    </mxGeometry>
                </mxCell>
                <mxCell id="CWuYNWOtUaod2RrFY3A3-22" value="&lt;h3&gt;Oui&lt;/h3&gt;" style="text;html=1;align=center;verticalAlign=middle;whiteSpace=wrap;rounded=0;sketch=0;fontColor=#393C56;" parent="Tb9AdFsS8pXjhhtc2Pzk-1" vertex="1">
                    <mxGeometry x="450" y="750" width="140" height="20" as="geometry"/>
                </mxCell>
                <mxCell id="CWuYNWOtUaod2RrFY3A3-23" value="&lt;h3&gt;Non&lt;/h3&gt;" style="text;html=1;align=center;verticalAlign=middle;whiteSpace=wrap;rounded=0;sketch=0;fontColor=#393C56;" parent="Tb9AdFsS8pXjhhtc2Pzk-1" vertex="1">
                    <mxGeometry x="310" y="810" width="140" height="20" as="geometry"/>
                </mxCell>
                <mxCell id="CWuYNWOtUaod2RrFY3A3-24" value="" style="edgeStyle=elbowEdgeStyle;elbow=horizontal;endArrow=classic;html=1;fontColor=#393C56;strokeColor=#E07A5F;fillColor=#F2CC8F;exitX=1;exitY=0.5;exitDx=0;exitDy=0;entryX=1;entryY=0.5;entryDx=0;entryDy=0;labelBackgroundColor=#F4F1DE;" parent="Tb9AdFsS8pXjhhtc2Pzk-1" source="CWuYNWOtUaod2RrFY3A3-12" target="Tb9AdFsS8pXjhhtc2Pzk-8" edge="1">
                    <mxGeometry width="50" height="50" relative="1" as="geometry">
                        <mxPoint x="540" y="720" as="sourcePoint"/>
                        <mxPoint x="590" y="670" as="targetPoint"/>
                        <Array as="points">
                            <mxPoint x="640" y="740"/>
                        </Array>
                    </mxGeometry>
                </mxCell>
            </root>
        </mxGraphModel>
    </diagram>
</mxfile>